<?xml version="1.0" encoding="utf-8"?>
<!-- Generator: Adobe Illustrator 24.0.0, SVG Export Plug-In . SVG Version: 6.00 Build 0)  -->
<svg version="1.1" xmlns="http://www.w3.org/2000/svg" xmlns:xlink="http://www.w3.org/1999/xlink" x="0px" y="0px"
	 viewBox="0 0 256 256" style="enable-background:new 0 0 256 256;" xml:space="preserve">
<style type="text/css">
	.st0{fill:#F98FA6;}
	.st1{fill:#FC657E;}
	.st2{fill:#DAE6F1;}
	.st3{fill:#5290DB;}
	.st4{fill:#FCDD86;}
	.st5{fill:#F5C84C;}
	.st6{fill:#87D147;}
	.st7{fill:#70D6F9;}
	.st8{fill:#EDF4FC;}
	.st9{fill:#9BE5F9;}
	.st10{fill:#B2E26D;}
	.st11{fill:#F9C1A8;}
	.st12{fill:#414344;}
	.st13{fill:#E1FBFF;}
	.st14{fill:#FFE3EC;}
	.st15{fill:#FCBECF;}
	.st16{fill:#EF4460;}
	.st17{fill:#80C2F9;}
	.st18{fill:#3A70BF;}
	.st19{fill:#FCA265;}
	.st20{fill:#5B5D60;}
	.st21{fill:#818182;}
	.st22{fill:#C7D7E5;}
	.st23{fill:#F9D0B4;}
	.st24{fill:#AA6F59;}
	.st25{fill:#D1856D;}
	.st26{fill:#FCC29A;}
	.st27{fill:#29589F;}
	.st28{fill:#F7B386;}
	.st29{fill:#FC8C48;}
	.st30{fill:#FFF0CC;}
	.st31{fill:#57AF12;}
	.st32{fill:#3CAADC;}
	.st33{fill:#EDB311;}
	.st34{fill:#231F20;}
</style>
<g id="Layer_1">
</g>
<g id="Layer_2">
</g>
<g id="Layer_3">
</g>
<g id="Layer_4">
</g>
<g id="Layer_5">
</g>
<g id="Layer_6">
</g>
<g id="Layer_7">
</g>
<g id="Layer_8">
</g>
<g id="Layer_9">
</g>
<g id="Layer_10">
</g>
<g id="Layer_11">
</g>
<g id="Layer_12">
</g>
<g id="Layer_13">
</g>
<g id="Layer_14">
</g>
<g id="Layer_15">
</g>
<g id="Layer_16">
</g>
<g id="Layer_17">
</g>
<g id="Layer_18">
</g>
<g id="Layer_19">
</g>
<g id="Layer_20">
</g>
<g id="Layer_21">
</g>
<g id="Layer_22">
	<g>
		<g>
			<g>
				<path class="st5" d="M219.983,20.697c-4.498-0.838-8.043-4.31-8.898-8.716c-0.043-0.221-0.352-0.221-0.395,0
					c-0.855,4.406-4.4,7.879-8.898,8.716c-0.226,0.042-0.226,0.345,0,0.387c4.498,0.838,8.043,4.31,8.898,8.717
					c0.043,0.221,0.352,0.221,0.395,0c0.855-4.406,4.4-7.879,8.898-8.717C220.209,21.042,220.209,20.739,219.983,20.697z"/>
			</g>
		</g>
		<g>
			<g>
				<path class="st1" d="M226.887,154.761c-3.004-0.56-5.372-2.879-5.943-5.822c-0.029-0.148-0.235-0.148-0.264,0
					c-0.571,2.943-2.939,5.263-5.943,5.822c-0.151,0.028-0.151,0.23,0,0.258c3.004,0.56,5.372,2.879,5.943,5.822
					c0.029,0.148,0.235,0.148,0.264,0c0.571-2.943,2.939-5.263,5.943-5.822C227.038,154.992,227.038,154.79,226.887,154.761z"/>
			</g>
		</g>
		<g>
			<g>
				<path class="st7" d="M42.694,157.302h-2.329v-2.33c0-1.744-1.413-3.157-3.157-3.157c-1.744,0-3.157,1.413-3.157,3.157v2.33
					h-2.33c-1.744,0-3.157,1.413-3.157,3.157s1.413,3.157,3.157,3.157h2.33v2.33c0,1.744,1.413,3.157,3.157,3.157
					c1.744,0,3.157-1.413,3.157-3.157v-2.33h2.329c1.744,0,3.157-1.413,3.157-3.157S44.438,157.302,42.694,157.302z"/>
			</g>
		</g>
		<g>
			<g>
				<path class="st5" d="M42.999,186.06c-1.865,0-3.377,1.512-3.377,3.377s1.512,3.377,3.377,3.377s3.377-1.512,3.377-3.377
					S44.864,186.06,42.999,186.06z"/>
			</g>
		</g>
		<g>
			<g>
				<path class="st1" d="M52.999,56.06c-1.865,0-3.377,1.512-3.377,3.377s1.512,3.377,3.377,3.377s3.377-1.512,3.377-3.377
					S54.864,56.06,52.999,56.06z"/>
			</g>
		</g>
		<g>
			<g>
				<circle class="st6" cx="188.999" cy="3.377" r="3.377"/>
			</g>
		</g>
		<g>
			<g>
				<path class="st13" d="M65.748,93.994L25.972,53.258c-3.256-3.334-8.598-3.398-11.932-0.142s-3.398,8.598-0.142,11.932
					l39.776,40.737c0.821,0.841,2.169,0.857,3.011,0.036l9.028-8.815C66.553,96.183,66.569,94.835,65.748,93.994z"/>
			</g>
		</g>
		<g>
			<g>
				<path class="st8" d="M102.927,138.599L63.972,98.704l-6.2,6.054l5.417,5.548c2.524,2.585,2.988,6.445,1.419,9.501
					c-0.729,1.42-0.558,3.132,0.557,4.275l15.043,15.406c5.728,5.866,14.583,7.375,21.931,3.736
					C103.904,142.349,104.303,140.008,102.927,138.599z"/>
			</g>
		</g>
		<g>
			<g>
				
					<rect x="42.564" y="85.953" transform="matrix(0.7155 -0.6986 0.6986 0.7155 -49.043 61.5128)" class="st9" width="16.875" height="10.034"/>
			</g>
		</g>
		<g>
			<g>
				<path class="st23" d="M243.9,231.928c-0.519-9.309-7.029-17.198-16.07-19.474l-37.147-9.377
					c-3.104-0.782-6.117-1.889-8.988-3.305l-12.844-6.333c-4.933-2.432-8.056-7.455-8.056-12.955v-15.755
					c-7.36,4.011-15.782,6.295-24.712,6.295c-8.93,0-17.352-2.283-24.712-6.295v15.756c0,5.5-3.123,10.522-8.056,12.955
					l-12.845,6.333c-2.871,1.415-5.884,2.523-8.988,3.305l-37.147,9.377c-9.041,2.276-15.551,10.165-16.07,19.474l-0.599,16.474
					c-0.101,2.785,2.129,5.097,4.915,5.097h207.004c2.786,0,5.017-2.313,4.915-5.097L243.9,231.928z"/>
			</g>
		</g>
		<g>
			<g>
				<path class="st9" d="M243.9,231.928c-0.519-9.309-7.029-17.198-16.07-19.474l-37.147-9.377
					c-3.104-0.782-6.117-1.889-8.988-3.305l-12.845-6.333c-1.927-0.95-3.572-2.299-4.869-3.914
					c-8.44,4.14-17.909,6.474-27.899,6.474c-9.99,0-19.459-2.334-27.899-6.474c-1.296,1.615-2.942,2.964-4.869,3.914l-12.845,6.333
					c-2.871,1.415-5.884,2.523-8.988,3.305l-37.147,9.377c-9.041,2.276-15.551,10.165-16.07,19.474l-0.599,16.474
					c-0.101,2.785,2.129,5.097,4.915,5.097h207.004c2.786,0,5.017-2.313,4.915-5.097L243.9,231.928z"/>
			</g>
		</g>
		<g>
			<g>
				<path class="st4" d="M136.083,2.5c-38.856,0-70.647,31.792-70.647,70.647v12.766c0.177-0.177,0.339-0.368,0.521-0.539
					c1.932-1.812,4.762-2.304,7.184-1.234c3.757,1.659,7.421,2.974,10.988,3.99c40.833,11.631,68.891-16.389,76.803-25.624
					c1.272-1.485,3.504-1.593,4.95-0.278c7.317,6.648,13.7,9.693,18.957,10.911c1.859,0.431,3.196,2.049,3.196,3.958v2.642
					c1.088-0.168,2.199-0.264,3.334-0.264c6.002,0,11.433,2.438,15.36,6.377V73.147C206.73,34.292,174.939,2.5,136.083,2.5z"/>
			</g>
		</g>
		<g>
			<g>
				<path d="M136.083,0C95.749,0,62.936,32.814,62.936,73.147v12.29c0,1.381,1.119,2.5,2.5,2.5s2.5-1.119,2.5-2.5v-12.29
					C67.936,35.571,98.506,5,136.083,5c37.577,0,68.147,30.571,68.147,68.147V85.25c0,1.381,1.119,2.5,2.5,2.5s2.5-1.119,2.5-2.5
					V73.147C209.23,32.814,176.416,0,136.083,0z"/>
			</g>
		</g>
		<g>
			<g>
				<path class="st4" d="M199.918,153.542c6.134-15.334,5.976-27.121,4.368-34.979c-3.611,2.685-8.07,4.294-12.916,4.294
					c-1.182,0-2.334-0.12-3.465-0.302c-1.22,18.177-11.885,33.876-27.111,42.174v15.755c0,5.5,3.123,10.522,8.056,12.955
					l12.845,6.333c2.871,1.415,5.884,2.523,8.988,3.305l26.194,6.612C219.194,185.417,192.955,170.949,199.918,153.542z"/>
			</g>
		</g>
		<g>
			<g>
				<path class="st4" d="M91.13,144.993c-4.054-0.566-7.918-2.431-10.921-5.506L66.99,125.95c-0.32,7.241,0.813,16.48,5.257,27.592
					c6.963,17.407-19.277,31.875-16.96,56.148l26.194-6.612c3.104-0.782,6.117-1.889,8.988-3.305l12.845-6.333
					c4.933-2.432,8.056-7.455,8.056-12.955v-15.755C102.95,160.139,95.934,153.279,91.13,144.993z"/>
			</g>
		</g>
		<g>
			<g>
				<path class="st23" d="M191.37,79.475c-1.135,0-2.246,0.096-3.334,0.264c0,42.725,0.035,39.44-0.052,41.363
					c-0.019,0.486-0.047,0.97-0.079,1.452c1.131,0.182,2.283,0.302,3.465,0.302c11.98,0,21.691-9.711,21.691-21.691
					S203.35,79.475,191.37,79.475z"/>
			</g>
		</g>
		<g>
			<g>
				<path class="st23" d="M184.841,73.14c-5.257-1.218-11.64-4.263-18.957-10.911c-1.447-1.315-3.678-1.207-4.951,0.278
					c-7.912,9.235-35.97,37.255-76.804,25.624v30.94c0,0.095,0.007,0.189,0.007,0.285l18.79,19.244
					c1.376,1.409,0.977,3.75-0.788,4.624c-3.498,1.732-7.336,2.285-11.017,1.769c9.01,15.525,25.813,26.032,44.961,26.032
					c28.574,0,51.953-23.379,51.953-51.954V77.098C188.036,75.189,186.7,73.571,184.841,73.14z"/>
			</g>
		</g>
		<g>
			<g>
				<path d="M165.478,188.822c-0.591-1.247-2.08-1.78-3.33-1.188c-8.208,3.892-16.978,5.865-26.065,5.865
					c-9.085,0-17.852-1.972-26.059-5.862c-1.25-0.591-2.739-0.059-3.33,1.188c-0.591,1.248-0.059,2.738,1.188,3.33
					c8.881,4.209,18.369,6.344,28.2,6.344c9.835,0,19.325-2.136,28.208-6.348C165.538,191.561,166.07,190.07,165.478,188.822z"/>
			</g>
		</g>
		<g>
			<g>
				<path class="st23" d="M63.972,98.704l20.163,20.65c-0.001-0.095-0.006-0.188-0.006-0.283v-30.94
					c-3.568-1.016-7.231-2.331-10.988-3.99c-2.422-1.07-5.253-0.577-7.184,1.234c-1.515,1.421-2.822,3.058-3.881,4.859l3.672,3.761
					c0.821,0.841,0.805,2.189-0.036,3.011L63.972,98.704z"/>
			</g>
		</g>
		<g>
			<g>
				<path d="M191.37,76.976c-1.029,0-2.072,0.068-3.102,0.202c-1.369,0.178-2.335,1.432-2.157,2.801
					c0.178,1.369,1.428,2.333,2.801,2.157c0.817-0.106,1.644-0.16,2.458-0.16c10.582,0,19.191,8.609,19.191,19.191
					s-8.609,19.191-19.191,19.191c-0.757,0-1.552-0.058-2.43-0.176c-1.365-0.185-2.627,0.775-2.812,2.144
					c-0.185,1.368,0.775,2.627,2.144,2.812c1.101,0.148,2.114,0.221,3.098,0.221c13.339,0,24.191-10.852,24.191-24.191
					S204.709,76.976,191.37,76.976z"/>
			</g>
		</g>
		<g>
			<g>
				<path d="M153.527,134.329c-1.058-0.887-2.635-0.748-3.522,0.31c-2.923,3.487-7.846,5.569-13.167,5.569
					c-5.321,0-10.244-2.082-13.167-5.569c-0.887-1.058-2.463-1.197-3.522-0.31c-1.058,0.887-1.197,2.464-0.31,3.522
					c3.862,4.607,10.216,7.357,16.999,7.357c6.782,0,13.136-2.75,16.999-7.357C154.724,136.792,154.585,135.216,153.527,134.329z"/>
			</g>
		</g>
		<g>
			<g>
				<path d="M173.733,103.871c-2.569-3.065-6.776-4.895-11.252-4.895c-4.477,0-8.683,1.83-11.252,4.895
					c-0.887,1.058-0.748,2.635,0.31,3.522c0.468,0.393,1.038,0.584,1.604,0.584c0.714,0,1.423-0.304,1.917-0.894
					c1.63-1.945,4.404-3.106,7.42-3.106s5.789,1.161,7.42,3.106c0.888,1.059,2.464,1.197,3.522,0.31
					C174.481,106.505,174.62,104.929,173.733,103.871z"/>
			</g>
		</g>
		<g>
			<g>
				<path d="M121.307,103.871c-2.569-3.065-6.776-4.895-11.252-4.895c-4.477,0-8.683,1.83-11.252,4.895
					c-0.887,1.058-0.748,2.635,0.31,3.522c0.468,0.393,1.038,0.584,1.604,0.584c0.714,0,1.423-0.304,1.917-0.894
					c1.63-1.945,4.404-3.106,7.42-3.106s5.789,1.161,7.42,3.106c0.887,1.059,2.464,1.197,3.522,0.31
					C122.055,106.505,122.194,104.929,121.307,103.871z"/>
			</g>
		</g>
		<g>
			<g>
				<path d="M185.404,70.704c-5.767-1.336-11.77-4.81-17.84-10.326c-1.215-1.104-2.781-1.653-4.408-1.554
					c-1.609,0.101-3.073,0.831-4.122,2.056c-7.43,8.672-34.737,36.093-74.22,24.846c-0.754-0.216-1.564-0.063-2.191,0.409
					c-0.626,0.472-0.994,1.211-0.994,1.995v30.94c0,1.381,1.119,2.5,2.5,2.5s2.5-1.119,2.5-2.5V91.371
					c5.895,1.417,11.516,2.038,16.851,2.038c31.423-0.002,52.752-21.574,59.351-29.275c0.209-0.244,0.462-0.308,0.637-0.319
					c0.15-0.009,0.456,0.011,0.734,0.264c6.71,6.097,13.464,9.965,20.073,11.497c0.742,0.172,1.261,0.798,1.261,1.522v41.973
					c0,27.269-22.185,49.454-49.454,49.454c-17.277,0-33.559-9.297-42.491-24.263c-0.707-1.185-2.242-1.572-3.428-0.865
					c-1.186,0.708-1.573,2.242-0.865,3.428c9.83,16.47,27.756,26.701,46.784,26.701c30.026,0,54.454-24.428,54.454-54.454V77.098
					C190.536,74.034,188.426,71.405,185.404,70.704z"/>
			</g>
		</g>
		<g>
			<g>
				<g>
					<g>
						<path d="M148.876,160.835c-1.367,0.802-2.764,1.483-4.155,2.024c-1.287,0.5-1.924,1.95-1.424,3.236
							c0.503,1.294,1.956,1.921,3.236,1.424c1.638-0.638,3.278-1.436,4.874-2.373c1.191-0.699,1.589-2.231,0.89-3.421
							C151.599,160.535,150.068,160.136,148.876,160.835z M122.847,160.57c-1.289-0.784-2.581-1.695-3.841-2.708
							c-1.076-0.865-2.65-0.694-3.515,0.383s-0.693,2.65,0.383,3.515c1.429,1.148,2.9,2.185,4.374,3.082
							c1.185,0.721,2.721,0.338,3.436-0.836C124.401,162.826,124.026,161.288,122.847,160.57z M109.263,147.306
							c-0.804-1.122-2.365-1.379-3.489-0.575c-1.122,0.805-1.379,2.367-0.575,3.489c1.036,1.443,2.11,2.831,3.193,4.125
							c0.887,1.059,2.464,1.197,3.522,0.311c1.059-0.887,1.198-2.464,0.311-3.522C111.222,149.936,110.225,148.648,109.263,147.306z
							 M135.836,164.522c-1.5-0.016-3.013-0.183-4.499-0.497c-1.353-0.284-2.677,0.58-2.963,1.93
							c-0.285,1.351,0.579,2.677,1.93,2.963c1.807,0.381,3.65,0.584,5.479,0.604h0.027c1.368,0,2.485-1.102,2.5-2.473
							C138.324,165.668,137.217,164.537,135.836,164.522z M177.303,124.747c-1.286-0.505-2.736,0.128-3.24,1.414
							c-0.605,1.542-1.241,3.074-1.891,4.552c-0.556,1.264,0.019,2.739,1.283,3.294c1.26,0.554,2.737-0.015,3.294-1.283
							c0.677-1.54,1.339-3.134,1.968-4.738C179.222,126.702,178.589,125.251,177.303,124.747z M159.594,151.543
							c-1.068,1.252-2.169,2.433-3.273,3.51c-0.988,0.964-1.007,2.547-0.043,3.535c0.965,0.989,2.548,1.007,3.535,0.043
							c1.212-1.183,2.418-2.476,3.584-3.843c0.896-1.05,0.771-2.628-0.279-3.524C162.07,150.368,160.491,150.492,159.594,151.543z
							 M171.218,138.548c-1.207-0.671-2.729-0.239-3.401,0.967c-0.809,1.452-1.648,2.866-2.496,4.203
							c-0.739,1.166-0.393,2.71,0.773,3.45c1.168,0.741,2.712,0.391,3.45-0.773c0.898-1.416,1.786-2.912,2.641-4.446
							C172.857,140.743,172.424,139.22,171.218,138.548z"/>
					</g>
				</g>
			</g>
		</g>
		<g>
			<g>
				<path d="M84.814,85.726c-3.539-1.008-7.126-2.311-10.663-3.873c-3.342-1.476-7.23-0.81-9.904,1.697
					c-1.558,1.46-2.919,3.128-4.049,4.956c-0.726,1.175-0.361,2.715,0.813,3.441c0.41,0.253,0.863,0.374,1.312,0.374
					c0.838,0,1.657-0.421,2.129-1.187c0.897-1.453,1.979-2.778,3.215-3.937c1.208-1.132,2.959-1.436,4.465-0.771
					c3.747,1.655,7.553,3.037,11.313,4.107c1.326,0.38,2.711-0.392,3.089-1.72C86.912,87.487,86.142,86.104,84.814,85.726z"/>
			</g>
		</g>
		<g>
			<g>
				<path d="M246.396,231.789c-0.583-10.458-7.798-19.202-17.954-21.758l-37.148-9.377c-2.929-0.737-5.786-1.788-8.493-3.123
					l-12.844-6.333c-4.109-2.026-6.662-6.131-6.662-10.713v-14.568c0-1.381-1.119-2.5-2.5-2.5s-2.5,1.119-2.5,2.5v14.568
					c0,6.499,3.621,12.322,9.451,15.197l12.845,6.333c3.022,1.49,6.213,2.664,9.482,3.486l37.148,9.377
					c8.024,2.02,13.724,8.927,14.182,17.14l0.6,16.475c0.024,0.662-0.216,1.29-0.676,1.767s-1.079,0.74-1.741,0.74H32.581
					c-0.663,0-1.281-0.263-1.741-0.74s-0.7-1.104-0.676-1.767l0.597-16.426c0.46-8.261,6.16-15.168,14.186-17.189l37.146-9.376
					c3.271-0.823,6.461-1.997,9.483-3.487l12.845-6.333c5.83-2.874,9.451-8.697,9.451-15.196V165.5c0-1.381-1.119-2.5-2.5-2.5
					s-2.5,1.119-2.5,2.5v14.985c0,4.581-2.553,8.686-6.662,10.712l-12.845,6.333c-2.707,1.334-5.564,2.385-8.495,3.123
					l-37.146,9.376c-10.157,2.557-17.373,11.301-17.958,21.807l-0.6,16.475c-0.074,2.031,0.663,3.956,2.074,5.419
					c1.411,1.463,3.308,2.269,5.34,2.269h207.003c2.033,0,3.929-0.806,5.34-2.269c1.411-1.463,2.147-3.388,2.074-5.419
					L246.396,231.789z"/>
			</g>
		</g>
		<g>
			<g>
				<path d="M208.892,177.906c-5.2-8.5-9.691-15.84-6.653-23.436c5.092-12.731,6.665-24.676,4.672-35.502
					c-0.25-1.358-1.558-2.26-2.911-2.006c-1.358,0.25-2.256,1.553-2.006,2.911c1.25,6.795,1.502,17.991-4.398,32.74
					c-3.969,9.923,1.374,18.656,7.03,27.902c5.273,8.619,10.726,17.532,9.792,28.609c-0.116,1.375,0.905,2.585,2.281,2.701
					c0.071,0.006,0.142,0.009,0.213,0.009c1.285,0,2.378-0.985,2.488-2.29C220.473,196.836,214.32,186.779,208.892,177.906z"/>
			</g>
		</g>
		<g>
			<g>
				<path d="M74.569,152.613c-3.682-9.204-5.396-18.015-5.096-26.188c0.05-1.38-1.027-2.54-2.407-2.59
					c-1.392-0.036-2.539,1.027-2.59,2.407c-0.326,8.874,1.507,18.372,5.45,28.228c3.038,7.596-1.453,14.936-6.653,23.436
					c-5.392,8.814-11.504,18.804-10.528,31.402c0.102,1.311,1.197,2.307,2.49,2.307c0.065,0,0.13-0.002,0.196-0.007
					c1.376-0.107,2.406-1.309,2.299-2.686c-0.851-10.983,4.567-19.84,9.808-28.406C73.195,171.27,78.538,162.537,74.569,152.613z"/>
			</g>
		</g>
		<g>
			<g>
				<g>
					<path d="M67.537,92.248L27.76,51.511c-4.214-4.315-11.152-4.398-15.467-0.184c-2.09,2.041-3.261,4.774-3.295,7.695
						c-0.035,2.921,1.07,5.682,3.111,7.772l39.776,40.736c0.864,0.885,2.021,1.38,3.257,1.395c0.019,0,0.038,0,0.056,0
						c1.216,0,2.362-0.467,3.232-1.317l9.028-8.814c0,0,0,0,0,0C69.284,97.01,69.319,94.074,67.537,92.248z M55.203,103.771
						L15.686,63.301c-1.108-1.135-1.708-2.633-1.689-4.219s0.654-3.07,1.789-4.178c1.153-1.125,2.651-1.687,4.148-1.687
						c1.544,0,3.087,0.597,4.249,1.787L63.7,95.475L55.203,103.771z"/>
				</g>
			</g>
		</g>
		<g>
			<g>
				<path d="M104.715,136.853L66.373,97.584c-0.964-0.987-2.547-1.007-3.535-0.042c-0.988,0.964-1.007,2.547-0.042,3.535
					l38.343,39.269c0.094,0.097,0.131,0.213,0.108,0.346c-0.022,0.133-0.095,0.231-0.216,0.291
					c-6.397,3.169-14.045,1.865-19.033-3.242l-15.042-15.406c-0.403-0.414-0.318-1.005-0.122-1.387
					c2.111-4.112,1.366-9.091-1.855-12.389l-5.01-5.131c-0.964-0.987-2.547-1.007-3.535-0.042c-0.988,0.964-1.007,2.547-0.042,3.535
					l5.01,5.131c1.716,1.758,2.112,4.415,0.984,6.612c-1.237,2.409-0.838,5.288,0.993,7.163l15.043,15.406
					c4.137,4.237,9.677,6.467,15.309,6.466c3.225,0,6.481-0.732,9.52-2.237c1.543-0.764,2.638-2.234,2.927-3.932
					C106.464,139.834,105.918,138.085,104.715,136.853z"/>
			</g>
		</g>
		<g>
			<g>
				<path d="M54.623,80.421c-0.964-0.987-2.547-1.007-3.535-0.042L40.157,91.052c-0.988,0.964-1.007,2.547-0.042,3.535
					c0.49,0.501,1.139,0.753,1.789,0.753c0.63,0,1.26-0.236,1.747-0.711l10.931-10.673C55.569,82.992,55.588,81.409,54.623,80.421z"
					/>
			</g>
		</g>
		<g>
			<g>
				<path d="M61.656,87.578c-0.964-0.987-2.547-1.006-3.535-0.042L47.158,98.241c-0.988,0.964-1.007,2.547-0.042,3.535
					c0.49,0.501,1.139,0.753,1.789,0.753c0.63,0,1.26-0.236,1.747-0.711l10.963-10.705C62.602,90.149,62.621,88.566,61.656,87.578z"
					/>
			</g>
		</g>
	</g>
</g>
<g id="Layer_23">
</g>
<g id="Layer_24">
</g>
<g id="Layer_25">
</g>
<g id="Layer_26">
</g>
<g id="Layer_27">
</g>
<g id="Layer_28">
</g>
<g id="Layer_29">
</g>
<g id="Layer_30">
</g>
<g id="Layer_31">
</g>
<g id="Layer_32">
</g>
<g id="Layer_33">
</g>
<g id="Layer_34">
</g>
<g id="Layer_35">
</g>
<g id="Layer_36">
</g>
<g id="Layer_37">
</g>
<g id="Layer_38">
</g>
<g id="Layer_39">
</g>
<g id="Layer_40">
</g>
<g id="Layer_41">
</g>
<g id="Layer_42">
</g>
<g id="Layer_43">
</g>
<g id="Layer_44">
</g>
<g id="Layer_45">
</g>
<g id="Layer_46">
</g>
<g id="Layer_47">
</g>
<g id="Layer_48">
</g>
<g id="Layer_49">
</g>
<g id="Layer_50">
</g>
<g id="Layer_51">
</g>
<g id="Layer_52">
</g>
<g id="Layer_53">
</g>
<g id="Layer_54">
</g>
<g id="Layer_55">
</g>
<g id="Layer_56">
</g>
<g id="Layer_57">
</g>
<g id="Layer_58">
</g>
<g id="Layer_59">
</g>
<g id="Layer_60">
</g>
<g id="Layer_61">
</g>
<g id="Layer_62">
</g>
<g id="Layer_63">
</g>
<g id="Layer_64">
</g>
<g id="Layer_65">
</g>
<g id="Layer_66">
</g>
<g id="Layer_67">
</g>
<g id="Layer_68">
</g>
<g id="Layer_69">
</g>
<g id="Layer_70">
</g>
<g id="Layer_71">
</g>
<g id="Layer_72">
</g>
<g id="Layer_73">
</g>
<g id="Layer_74">
</g>
<g id="Layer_75">
</g>
<g id="Layer_76">
</g>
<g id="Layer_77">
</g>
<g id="Layer_78">
</g>
<g id="Layer_79">
</g>
<g id="Layer_80">
</g>
<g id="Layer_81">
</g>
<g id="Layer_82">
</g>
<g id="Layer_83">
</g>
<g id="Layer_84">
</g>
<g id="Layer_85">
</g>
</svg>
